<svg width="93" height="91" viewBox="0 0 93 91" fill="none" xmlns="http://www.w3.org/2000/svg">
<path d="M83.8453 21.8258L48.7523 2.06174C48.1711 1.70627 47.3719 1.56409 46.5 1.56409C45.6281 1.56409 44.8289 1.77737 44.2477 2.06174L9.37266 21.8969C8.1375 22.6078 7.26562 24.3852 7.26562 25.736V65.3352C7.26562 66.1172 7.41094 67.0414 7.99219 67.8235L85.5891 23.7453C85.1531 22.8922 84.4992 22.2524 83.8453 21.8258Z" fill="#659AD3"/>
<path d="M7.77423 67.7523C8.13751 68.3211 8.64611 68.8187 9.1547 69.1031L44.175 88.9383C44.7563 89.2937 45.5555 89.4359 46.4274 89.4359C47.2992 89.4359 48.0985 89.2226 48.6797 88.9383L83.5547 69.1031C84.7899 68.3922 85.6617 66.6148 85.6617 65.264V25.6648C85.6617 25.025 85.5891 24.314 85.2258 23.6742L7.77423 67.7523Z" fill="#03599C"/>
<path d="M61.9758 54.1023C58.9242 59.3633 53.1117 62.918 46.5 62.918C36.6914 62.918 28.6992 55.0977 28.6992 45.5C28.6992 35.9023 36.6914 28.082 46.5 28.082C53.1117 28.082 58.9242 31.6367 61.9758 36.9688L71.4211 31.6367C66.4805 23.1766 57.1805 17.418 46.5 17.418C30.6609 17.418 17.8008 30.0016 17.8008 45.5C17.8008 60.9984 30.6609 73.582 46.5 73.582C57.1078 73.582 66.4078 67.8945 71.3484 59.5055L61.9758 54.1023Z" fill="white"/>
</svg>
