<svg width="90" height="38" viewBox="0 0 90 38" fill="none" xmlns="http://www.w3.org/2000/svg">
<path d="M6.984 30.104V31H0.808V30.104L2.568 29.88C2.80267 29.8373 2.97333 29.7947 3.08 29.752C3.18667 29.688 3.28267 29.5493 3.368 29.336C3.45333 29.1227 3.57067 28.7813 3.72 28.312L9.832 9.24H12.584L18.728 28.312C18.8773 28.7813 18.9947 29.1227 19.08 29.336C19.1653 29.5493 19.2613 29.688 19.368 29.752C19.496 29.7947 19.6667 29.8373 19.88 29.88L21.64 30.104V31H12.808V30.104L14.568 29.88C14.9093 29.8373 15.0907 29.752 15.112 29.624C15.1547 29.4747 15.0587 29.0373 14.824 28.312L13.608 24.344H6.216L4.968 28.312C4.75467 29.0373 4.65867 29.4747 4.68 29.624C4.70133 29.752 4.88267 29.8373 5.224 29.88L6.984 30.104ZM6.6 23.224H13.256L9.96 12.6L6.6 23.224ZM21.6935 8.216V7.32H27.8375V17.144C28.4135 16.248 29.0535 15.576 29.7575 15.128C30.4828 14.68 31.3148 14.456 32.2535 14.456C34.0455 14.456 35.4642 15.1707 36.5095 16.6C37.5762 18.008 38.1095 19.992 38.1095 22.552V23.192C38.1095 25.6667 37.5015 27.64 36.2855 29.112C35.0695 30.584 33.3842 31.32 31.2295 31.32C29.5868 31.32 28.2428 30.8293 27.1975 29.848C26.8135 29.9973 26.4402 30.1893 26.0775 30.424C25.7362 30.6373 25.3842 30.8827 25.0215 31.16H24.1575V10.008C24.1575 9.28267 24.1255 8.856 24.0615 8.728C23.9975 8.57867 23.7948 8.48267 23.4535 8.44L21.6935 8.216ZM31.4215 15.864C30.8882 15.864 30.3228 16.088 29.7255 16.536C29.1495 16.9627 28.5202 17.848 27.8375 19.192V28.856C28.6482 29.6667 29.6402 30.072 30.8135 30.072C32.0082 30.072 32.8615 29.5493 33.3735 28.504C33.9068 27.4373 34.1735 25.9867 34.1735 24.152V21.592C34.1735 19.608 33.9282 18.1573 33.4375 17.24C32.9468 16.3227 32.2748 15.864 31.4215 15.864ZM56.2263 22.552V23.192C56.2263 25.6453 55.5863 27.6187 54.3063 29.112C53.0476 30.584 51.2449 31.32 48.8983 31.32C46.5516 31.32 44.7383 30.584 43.4583 29.112C42.1996 27.6187 41.5703 25.6453 41.5703 23.192V22.552C41.5703 20.0987 42.1996 18.136 43.4583 16.664C44.7383 15.192 46.5516 14.456 48.8983 14.456C51.2449 14.456 53.0476 15.192 54.3063 16.664C55.5863 18.136 56.2263 20.0987 56.2263 22.552ZM52.2903 21.912C52.2903 19.6293 52.0023 18.008 51.4263 17.048C50.8503 16.0667 50.0076 15.576 48.8983 15.576C47.8103 15.576 46.9676 16.0667 46.3703 17.048C45.7943 18.008 45.5063 19.6293 45.5063 21.912V23.832C45.5063 26.0933 45.7943 27.7253 46.3703 28.728C46.9676 29.7093 47.8103 30.2 48.8983 30.2C50.0076 30.2 50.8503 29.7093 51.4263 28.728C52.0023 27.7253 52.2903 26.0933 52.2903 23.832V21.912ZM76.755 30.104V31H70.803V28.184C70.2057 29.272 69.4377 30.072 68.499 30.584C67.5603 31.0747 66.611 31.32 65.651 31.32C64.1363 31.32 62.931 30.8187 62.035 29.816C61.139 28.792 60.691 27.3733 60.691 25.56V17.464C60.691 16.7387 60.659 16.312 60.595 16.184C60.531 16.0347 60.3283 15.9387 59.987 15.896L58.227 15.672V14.776H64.371V25.528C64.371 27 64.5737 28.0773 64.979 28.76C65.4057 29.4213 66.0137 29.752 66.803 29.752C67.1443 29.752 67.539 29.6667 67.987 29.496C68.4563 29.304 68.9257 28.9733 69.395 28.504C69.8643 28.0133 70.2697 27.32 70.611 26.424V17.464C70.611 16.7387 70.579 16.3013 70.515 16.152C70.451 16.0027 70.2483 15.9173 69.907 15.896L67.507 15.672V14.776H74.291V28.312C74.291 29.0373 74.323 29.4747 74.387 29.624C74.451 29.752 74.6537 29.8373 74.995 29.88L76.755 30.104ZM89.4093 27.672C89.1319 28.9733 88.5986 29.912 87.8093 30.488C87.0413 31.0427 86.1026 31.32 84.9933 31.32C83.8626 31.32 82.9346 31.0747 82.2093 30.584C81.4839 30.072 80.9506 29.4 80.6093 28.568C80.2679 27.736 80.0973 26.8507 80.0973 25.912V17.464C80.0973 16.7387 80.0653 16.312 80.0013 16.184C79.9373 16.0347 79.7346 15.9387 79.3932 15.896L77.6333 15.672V14.776H80.0973V11.064L83.7773 10.328V14.776H88.8973V15.896H83.7773V26.552C83.7773 27.9173 83.9479 28.8667 84.2893 29.4C84.6306 29.912 85.0679 30.168 85.6013 30.168C86.1559 30.168 86.5826 29.9547 86.8813 29.528C87.2013 29.1013 87.4039 28.3227 87.4893 27.192L89.4093 27.672Z" fill="white"/>
</svg>
